<svg class="rich-terminal" viewBox="0 0 1238 782.0" xmlns="http://www.w3.org/2000/svg">
    <!-- Generated with Rich https://www.textualize.io -->
    <style>

    @font-face {
        font-family: "Fira Code";
        src: local("FiraCode-Regular"),
                url("https://cdnjs.cloudflare.com/ajax/libs/firacode/6.2.0/woff2/FiraCode-Regular.woff2") format("woff2"),
                url("https://cdnjs.cloudflare.com/ajax/libs/firacode/6.2.0/woff/FiraCode-Regular.woff") format("woff");
        font-style: normal;
        font-weight: 400;
    }
    @font-face {
        font-family: "Fira Code";
        src: local("FiraCode-Bold"),
                url("https://cdnjs.cloudflare.com/ajax/libs/firacode/6.2.0/woff2/FiraCode-Bold.woff2") format("woff2"),
                url("https://cdnjs.cloudflare.com/ajax/libs/firacode/6.2.0/woff/FiraCode-Bold.woff") format("woff");
        font-style: bold;
        font-weight: 700;
    }

    .terminal-413585415-matrix {
        font-family: Fira Code, monospace;
        font-size: 20px;
        line-height: 24.4px;
        font-variant-east-asian: full-width;
    }

    .terminal-413585415-title {
        font-size: 18px;
        font-weight: bold;
        font-family: arial;
    }

    .terminal-413585415-r1 { fill: #c5c8c6 }
.terminal-413585415-r2 { fill: #235a74;font-weight: bold }
.terminal-413585415-r3 { fill: #65717a }
.terminal-413585415-r4 { fill: #327446;font-weight: bold }
.terminal-413585415-r5 { fill: #9eadae }
.terminal-413585415-r6 { fill: #28343c }
.terminal-413585415-r7 { fill: #327446 }
.terminal-413585415-r8 { fill: #5a6770 }
.terminal-413585415-r9 { fill: #f5f6f7 }
.terminal-413585415-r10 { fill: #a52929 }
.terminal-413585415-r11 { fill: #235a74 }
.terminal-413585415-r12 { fill: #80531f;font-weight: bold }
.terminal-413585415-r13 { fill: #28343c;font-weight: bold }
.terminal-413585415-r14 { fill: #8c9aa8 }
.terminal-413585415-r15 { fill: #65717a;font-style: italic; }
.terminal-413585415-r16 { fill: #eeeeee }
    </style>

    <defs>
    <clipPath id="terminal-413585415-clip-terminal">
      <rect x="0" y="0" width="1219.0" height="731.0" />
    </clipPath>
    <clipPath id="terminal-413585415-line-0">
    <rect x="0" y="1.5" width="1220" height="24.65"/>
            </clipPath>
<clipPath id="terminal-413585415-line-1">
    <rect x="0" y="25.9" width="1220" height="24.65"/>
            </clipPath>
<clipPath id="terminal-413585415-line-2">
    <rect x="0" y="50.3" width="1220" height="24.65"/>
            </clipPath>
<clipPath id="terminal-413585415-line-3">
    <rect x="0" y="74.7" width="1220" height="24.65"/>
            </clipPath>
<clipPath id="terminal-413585415-line-4">
    <rect x="0" y="99.1" width="1220" height="24.65"/>
            </clipPath>
<clipPath id="terminal-413585415-line-5">
    <rect x="0" y="123.5" width="1220" height="24.65"/>
            </clipPath>
<clipPath id="terminal-413585415-line-6">
    <rect x="0" y="147.9" width="1220" height="24.65"/>
            </clipPath>
<clipPath id="terminal-413585415-line-7">
    <rect x="0" y="172.3" width="1220" height="24.65"/>
            </clipPath>
<clipPath id="terminal-413585415-line-8">
    <rect x="0" y="196.7" width="1220" height="24.65"/>
            </clipPath>
<clipPath id="terminal-413585415-line-9">
    <rect x="0" y="221.1" width="1220" height="24.65"/>
            </clipPath>
<clipPath id="terminal-413585415-line-10">
    <rect x="0" y="245.5" width="1220" height="24.65"/>
            </clipPath>
<clipPath id="terminal-413585415-line-11">
    <rect x="0" y="269.9" width="1220" height="24.65"/>
            </clipPath>
<clipPath id="terminal-413585415-line-12">
    <rect x="0" y="294.3" width="1220" height="24.65"/>
            </clipPath>
<clipPath id="terminal-413585415-line-13">
    <rect x="0" y="318.7" width="1220" height="24.65"/>
            </clipPath>
<clipPath id="terminal-413585415-line-14">
    <rect x="0" y="343.1" width="1220" height="24.65"/>
            </clipPath>
<clipPath id="terminal-413585415-line-15">
    <rect x="0" y="367.5" width="1220" height="24.65"/>
            </clipPath>
<clipPath id="terminal-413585415-line-16">
    <rect x="0" y="391.9" width="1220" height="24.65"/>
            </clipPath>
<clipPath id="terminal-413585415-line-17">
    <rect x="0" y="416.3" width="1220" height="24.65"/>
            </clipPath>
<clipPath id="terminal-413585415-line-18">
    <rect x="0" y="440.7" width="1220" height="24.65"/>
            </clipPath>
<clipPath id="terminal-413585415-line-19">
    <rect x="0" y="465.1" width="1220" height="24.65"/>
            </clipPath>
<clipPath id="terminal-413585415-line-20">
    <rect x="0" y="489.5" width="1220" height="24.65"/>
            </clipPath>
<clipPath id="terminal-413585415-line-21">
    <rect x="0" y="513.9" width="1220" height="24.65"/>
            </clipPath>
<clipPath id="terminal-413585415-line-22">
    <rect x="0" y="538.3" width="1220" height="24.65"/>
            </clipPath>
<clipPath id="terminal-413585415-line-23">
    <rect x="0" y="562.7" width="1220" height="24.65"/>
            </clipPath>
<clipPath id="terminal-413585415-line-24">
    <rect x="0" y="587.1" width="1220" height="24.65"/>
            </clipPath>
<clipPath id="terminal-413585415-line-25">
    <rect x="0" y="611.5" width="1220" height="24.65"/>
            </clipPath>
<clipPath id="terminal-413585415-line-26">
    <rect x="0" y="635.9" width="1220" height="24.65"/>
            </clipPath>
<clipPath id="terminal-413585415-line-27">
    <rect x="0" y="660.3" width="1220" height="24.65"/>
            </clipPath>
<clipPath id="terminal-413585415-line-28">
    <rect x="0" y="684.7" width="1220" height="24.65"/>
            </clipPath>
    </defs>

    <rect fill="#292929" stroke="rgba(255,255,255,0.35)" stroke-width="1" x="1" y="1" width="1236" height="780" rx="8"/><text class="terminal-413585415-title" fill="#c5c8c6" text-anchor="middle" x="618" y="27">奶龙&#160;Agent</text>
            <g transform="translate(26,22)">
            <circle cx="0" cy="0" r="7" fill="#ff5f57"/>
            <circle cx="22" cy="0" r="7" fill="#febc2e"/>
            <circle cx="44" cy="0" r="7" fill="#28c840"/>
            </g>

    <g transform="translate(9, 41)" clip-path="url(#terminal-413585415-clip-terminal)">
    <rect fill="#f5f6f7" x="0" y="1.5" width="24.4" height="24.65" shape-rendering="crispEdges"/><rect fill="#f5f6f7" x="24.4" y="1.5" width="122" height="24.65" shape-rendering="crispEdges"/><rect fill="#f5f6f7" x="146.4" y="1.5" width="329.4" height="24.65" shape-rendering="crispEdges"/><rect fill="#f5f6f7" x="475.8" y="1.5" width="634.4" height="24.65" shape-rendering="crispEdges"/><rect fill="#f5f6f7" x="1110.2" y="1.5" width="12.2" height="24.65" shape-rendering="crispEdges"/><rect fill="#f5f6f7" x="1122.4" y="1.5" width="12.2" height="24.65" shape-rendering="crispEdges"/><rect fill="#f5f6f7" x="1134.6" y="1.5" width="61" height="24.65" shape-rendering="crispEdges"/><rect fill="#f5f6f7" x="1195.6" y="1.5" width="24.4" height="24.65" shape-rendering="crispEdges"/><rect fill="#f5f6f7" x="0" y="25.9" width="12.2" height="24.65" shape-rendering="crispEdges"/><rect fill="#f5f6f7" x="12.2" y="25.9" width="24.4" height="24.65" shape-rendering="crispEdges"/><rect fill="#f5f6f7" x="36.6" y="25.9" width="12.2" height="24.65" shape-rendering="crispEdges"/><rect fill="#f5f6f7" x="48.8" y="25.9" width="378.2" height="24.65" shape-rendering="crispEdges"/><rect fill="#f5f6f7" x="427" y="25.9" width="719.8" height="24.65" shape-rendering="crispEdges"/><rect fill="#f5f6f7" x="1146.8" y="25.9" width="12.2" height="24.65" shape-rendering="crispEdges"/><rect fill="#f5f6f7" x="1159" y="25.9" width="12.2" height="24.65" shape-rendering="crispEdges"/><rect fill="#f5f6f7" x="1171.2" y="25.9" width="48.8" height="24.65" shape-rendering="crispEdges"/><rect fill="#f5f6f7" x="0" y="50.3" width="12.2" height="24.65" shape-rendering="crispEdges"/><rect fill="#f5f6f7" x="12.2" y="50.3" width="24.4" height="24.65" shape-rendering="crispEdges"/><rect fill="#f5f6f7" x="36.6" y="50.3" width="158.6" height="24.65" shape-rendering="crispEdges"/><rect fill="#f5f6f7" x="195.2" y="50.3" width="951.6" height="24.65" shape-rendering="crispEdges"/><rect fill="#f5f6f7" x="1146.8" y="50.3" width="12.2" height="24.65" shape-rendering="crispEdges"/><rect fill="#f5f6f7" x="1159" y="50.3" width="12.2" height="24.65" shape-rendering="crispEdges"/><rect fill="#f5f6f7" x="1171.2" y="50.3" width="48.8" height="24.65" shape-rendering="crispEdges"/><rect fill="#f5f6f7" x="0" y="74.7" width="12.2" height="24.65" shape-rendering="crispEdges"/><rect fill="#f5f6f7" x="12.2" y="74.7" width="24.4" height="24.65" shape-rendering="crispEdges"/><rect fill="#f5f6f7" x="36.6" y="74.7" width="170.8" height="24.65" shape-rendering="crispEdges"/><rect fill="#f5f6f7" x="207.4" y="74.7" width="939.4" height="24.65" shape-rendering="crispEdges"/><rect fill="#f5f6f7" x="1146.8" y="74.7" width="12.2" height="24.65" shape-rendering="crispEdges"/><rect fill="#f5f6f7" x="1159" y="74.7" width="12.2" height="24.65" shape-rendering="crispEdges"/><rect fill="#f5f6f7" x="1171.2" y="74.7" width="48.8" height="24.65" shape-rendering="crispEdges"/><rect fill="#f5f6f7" x="0" y="99.1" width="12.2" height="24.65" shape-rendering="crispEdges"/><rect fill="#f5f6f7" x="12.2" y="99.1" width="24.4" height="24.65" shape-rendering="crispEdges"/><rect fill="#f5f6f7" x="36.6" y="99.1" width="219.6" height="24.65" shape-rendering="crispEdges"/><rect fill="#f5f6f7" x="256.2" y="99.1" width="890.6" height="24.65" shape-rendering="crispEdges"/><rect fill="#65717a" x="1146.8" y="99.1" width="12.2" height="24.65" shape-rendering="crispEdges"/><rect fill="#f5f6f7" x="1159" y="99.1" width="12.2" height="24.65" shape-rendering="crispEdges"/><rect fill="#f5f6f7" x="1171.2" y="99.1" width="48.8" height="24.65" shape-rendering="crispEdges"/><rect fill="#f5f6f7" x="0" y="123.5" width="12.2" height="24.65" shape-rendering="crispEdges"/><rect fill="#f5f6f7" x="12.2" y="123.5" width="24.4" height="24.65" shape-rendering="crispEdges"/><rect fill="#f5f6f7" x="36.6" y="123.5" width="134.2" height="24.65" shape-rendering="crispEdges"/><rect fill="#f5f6f7" x="170.8" y="123.5" width="976" height="24.65" shape-rendering="crispEdges"/><rect fill="#65717a" x="1146.8" y="123.5" width="12.2" height="24.65" shape-rendering="crispEdges"/><rect fill="#f5f6f7" x="1159" y="123.5" width="12.2" height="24.65" shape-rendering="crispEdges"/><rect fill="#f5f6f7" x="1171.2" y="123.5" width="48.8" height="24.65" shape-rendering="crispEdges"/><rect fill="#f5f6f7" x="0" y="147.9" width="12.2" height="24.65" shape-rendering="crispEdges"/><rect fill="#f5f6f7" x="12.2" y="147.9" width="24.4" height="24.65" shape-rendering="crispEdges"/><rect fill="#f5f6f7" x="36.6" y="147.9" width="134.2" height="24.65" shape-rendering="crispEdges"/><rect fill="#f5f6f7" x="170.8" y="147.9" width="976" height="24.65" shape-rendering="crispEdges"/><rect fill="#65717a" x="1146.8" y="147.9" width="12.2" height="24.65" shape-rendering="crispEdges"/><rect fill="#f5f6f7" x="1159" y="147.9" width="12.2" height="24.65" shape-rendering="crispEdges"/><rect fill="#f5f6f7" x="1171.2" y="147.9" width="48.8" height="24.65" shape-rendering="crispEdges"/><rect fill="#f5f6f7" x="0" y="172.3" width="12.2" height="24.65" shape-rendering="crispEdges"/><rect fill="#f5f6f7" x="12.2" y="172.3" width="24.4" height="24.65" shape-rendering="crispEdges"/><rect fill="#f5f6f7" x="36.6" y="172.3" width="12.2" height="24.65" shape-rendering="crispEdges"/><rect fill="#f5f6f7" x="48.8" y="172.3" width="915" height="24.65" shape-rendering="crispEdges"/><rect fill="#f5f6f7" x="963.8" y="172.3" width="24.4" height="24.65" shape-rendering="crispEdges"/><rect fill="#f5f6f7" x="988.2" y="172.3" width="158.6" height="24.65" shape-rendering="crispEdges"/><rect fill="#65717a" x="1146.8" y="172.3" width="12.2" height="24.65" shape-rendering="crispEdges"/><rect fill="#f5f6f7" x="1159" y="172.3" width="12.2" height="24.65" shape-rendering="crispEdges"/><rect fill="#f5f6f7" x="1171.2" y="172.3" width="48.8" height="24.65" shape-rendering="crispEdges"/><rect fill="#f5f6f7" x="0" y="196.7" width="12.2" height="24.65" shape-rendering="crispEdges"/><rect fill="#f5f6f7" x="12.2" y="196.7" width="24.4" height="24.65" shape-rendering="crispEdges"/><rect fill="#f5f6f7" x="36.6" y="196.7" width="195.2" height="24.65" shape-rendering="crispEdges"/><rect fill="#f5f6f7" x="231.8" y="196.7" width="756.4" height="24.65" shape-rendering="crispEdges"/><rect fill="#f5f6f7" x="988.2" y="196.7" width="158.6" height="24.65" shape-rendering="crispEdges"/><rect fill="#65717a" x="1146.8" y="196.7" width="12.2" height="24.65" shape-rendering="crispEdges"/><rect fill="#f5f6f7" x="1159" y="196.7" width="12.2" height="24.65" shape-rendering="crispEdges"/><rect fill="#f5f6f7" x="1171.2" y="196.7" width="48.8" height="24.65" shape-rendering="crispEdges"/><rect fill="#f5f6f7" x="0" y="221.1" width="12.2" height="24.65" shape-rendering="crispEdges"/><rect fill="#f5f6f7" x="12.2" y="221.1" width="24.4" height="24.65" shape-rendering="crispEdges"/><rect fill="#f5f6f7" x="36.6" y="221.1" width="170.8" height="24.65" shape-rendering="crispEdges"/><rect fill="#f5f6f7" x="207.4" y="221.1" width="939.4" height="24.65" shape-rendering="crispEdges"/><rect fill="#65717a" x="1146.8" y="221.1" width="12.2" height="24.65" shape-rendering="crispEdges"/><rect fill="#f5f6f7" x="1159" y="221.1" width="12.2" height="24.65" shape-rendering="crispEdges"/><rect fill="#f5f6f7" x="1171.2" y="221.1" width="48.8" height="24.65" shape-rendering="crispEdges"/><rect fill="#f5f6f7" x="0" y="245.5" width="12.2" height="24.65" shape-rendering="crispEdges"/><rect fill="#f5f6f7" x="12.2" y="245.5" width="24.4" height="24.65" shape-rendering="crispEdges"/><rect fill="#f5f6f7" x="36.6" y="245.5" width="292.8" height="24.65" shape-rendering="crispEdges"/><rect fill="#f5f6f7" x="329.4" y="245.5" width="817.4" height="24.65" shape-rendering="crispEdges"/><rect fill="#65717a" x="1146.8" y="245.5" width="12.2" height="24.65" shape-rendering="crispEdges"/><rect fill="#f5f6f7" x="1159" y="245.5" width="12.2" height="24.65" shape-rendering="crispEdges"/><rect fill="#f5f6f7" x="1171.2" y="245.5" width="48.8" height="24.65" shape-rendering="crispEdges"/><rect fill="#f5f6f7" x="0" y="269.9" width="12.2" height="24.65" shape-rendering="crispEdges"/><rect fill="#f5f6f7" x="12.2" y="269.9" width="24.4" height="24.65" shape-rendering="crispEdges"/><rect fill="#f5f6f7" x="36.6" y="269.9" width="73.2" height="24.65" shape-rendering="crispEdges"/><rect fill="#f5f6f7" x="109.8" y="269.9" width="1037" height="24.65" shape-rendering="crispEdges"/><rect fill="#65717a" x="1146.8" y="269.9" width="12.2" height="24.65" shape-rendering="crispEdges"/><rect fill="#f5f6f7" x="1159" y="269.9" width="12.2" height="24.65" shape-rendering="crispEdges"/><rect fill="#f5f6f7" x="1171.2" y="269.9" width="48.8" height="24.65" shape-rendering="crispEdges"/><rect fill="#f5f6f7" x="0" y="294.3" width="12.2" height="24.65" shape-rendering="crispEdges"/><rect fill="#f5f6f7" x="12.2" y="294.3" width="24.4" height="24.65" shape-rendering="crispEdges"/><rect fill="#f5f6f7" x="36.6" y="294.3" width="207.4" height="24.65" shape-rendering="crispEdges"/><rect fill="#f5f6f7" x="244" y="294.3" width="902.8" height="24.65" shape-rendering="crispEdges"/><rect fill="#65717a" x="1146.8" y="294.3" width="12.2" height="24.65" shape-rendering="crispEdges"/><rect fill="#f5f6f7" x="1159" y="294.3" width="12.2" height="24.65" shape-rendering="crispEdges"/><rect fill="#f5f6f7" x="1171.2" y="294.3" width="48.8" height="24.65" shape-rendering="crispEdges"/><rect fill="#f5f6f7" x="0" y="318.7" width="12.2" height="24.65" shape-rendering="crispEdges"/><rect fill="#f5f6f7" x="12.2" y="318.7" width="1134.6" height="24.65" shape-rendering="crispEdges"/><rect fill="#65717a" x="1146.8" y="318.7" width="12.2" height="24.65" shape-rendering="crispEdges"/><rect fill="#f5f6f7" x="1159" y="318.7" width="12.2" height="24.65" shape-rendering="crispEdges"/><rect fill="#f5f6f7" x="1171.2" y="318.7" width="48.8" height="24.65" shape-rendering="crispEdges"/><rect fill="#f5f6f7" x="0" y="343.1" width="12.2" height="24.65" shape-rendering="crispEdges"/><rect fill="#f5f6f7" x="12.2" y="343.1" width="24.4" height="24.65" shape-rendering="crispEdges"/><rect fill="#f5f6f7" x="36.6" y="343.1" width="122" height="24.65" shape-rendering="crispEdges"/><rect fill="#f5f6f7" x="158.6" y="343.1" width="988.2" height="24.65" shape-rendering="crispEdges"/><rect fill="#65717a" x="1146.8" y="343.1" width="12.2" height="24.65" shape-rendering="crispEdges"/><rect fill="#f5f6f7" x="1159" y="343.1" width="12.2" height="24.65" shape-rendering="crispEdges"/><rect fill="#f5f6f7" x="1171.2" y="343.1" width="48.8" height="24.65" shape-rendering="crispEdges"/><rect fill="#f5f6f7" x="0" y="367.5" width="12.2" height="24.65" shape-rendering="crispEdges"/><rect fill="#f5f6f7" x="12.2" y="367.5" width="24.4" height="24.65" shape-rendering="crispEdges"/><rect fill="#f5f6f7" x="36.6" y="367.5" width="390.4" height="24.65" shape-rendering="crispEdges"/><rect fill="#f5f6f7" x="427" y="367.5" width="561.2" height="24.65" shape-rendering="crispEdges"/><rect fill="#f5f6f7" x="988.2" y="367.5" width="158.6" height="24.65" shape-rendering="crispEdges"/><rect fill="#65717a" x="1146.8" y="367.5" width="12.2" height="24.65" shape-rendering="crispEdges"/><rect fill="#f5f6f7" x="1159" y="367.5" width="12.2" height="24.65" shape-rendering="crispEdges"/><rect fill="#f5f6f7" x="1171.2" y="367.5" width="48.8" height="24.65" shape-rendering="crispEdges"/><rect fill="#f5f6f7" x="0" y="391.9" width="12.2" height="24.65" shape-rendering="crispEdges"/><rect fill="#f5f6f7" x="12.2" y="391.9" width="24.4" height="24.65" shape-rendering="crispEdges"/><rect fill="#f5f6f7" x="36.6" y="391.9" width="951.6" height="24.65" shape-rendering="crispEdges"/><rect fill="#f5f6f7" x="988.2" y="391.9" width="158.6" height="24.65" shape-rendering="crispEdges"/><rect fill="#65717a" x="1146.8" y="391.9" width="12.2" height="24.65" shape-rendering="crispEdges"/><rect fill="#f5f6f7" x="1159" y="391.9" width="12.2" height="24.65" shape-rendering="crispEdges"/><rect fill="#f5f6f7" x="1171.2" y="391.9" width="48.8" height="24.65" shape-rendering="crispEdges"/><rect fill="#f5f6f7" x="0" y="416.3" width="12.2" height="24.65" shape-rendering="crispEdges"/><rect fill="#f5f6f7" x="12.2" y="416.3" width="24.4" height="24.65" shape-rendering="crispEdges"/><rect fill="#f5f6f7" x="36.6" y="416.3" width="36.6" height="24.65" shape-rendering="crispEdges"/><rect fill="#f5f6f7" x="73.2" y="416.3" width="292.8" height="24.65" shape-rendering="crispEdges"/><rect fill="#f5f6f7" x="366" y="416.3" width="622.2" height="24.65" shape-rendering="crispEdges"/><rect fill="#f5f6f7" x="988.2" y="416.3" width="158.6" height="24.65" shape-rendering="crispEdges"/><rect fill="#65717a" x="1146.8" y="416.3" width="12.2" height="24.65" shape-rendering="crispEdges"/><rect fill="#f5f6f7" x="1159" y="416.3" width="12.2" height="24.65" shape-rendering="crispEdges"/><rect fill="#f5f6f7" x="1171.2" y="416.3" width="48.8" height="24.65" shape-rendering="crispEdges"/><rect fill="#f5f6f7" x="0" y="440.7" width="12.2" height="24.65" shape-rendering="crispEdges"/><rect fill="#f5f6f7" x="12.2" y="440.7" width="24.4" height="24.65" shape-rendering="crispEdges"/><rect fill="#f5f6f7" x="36.6" y="440.7" width="36.6" height="24.65" shape-rendering="crispEdges"/><rect fill="#f5f6f7" x="73.2" y="440.7" width="439.2" height="24.65" shape-rendering="crispEdges"/><rect fill="#f5f6f7" x="512.4" y="440.7" width="475.8" height="24.65" shape-rendering="crispEdges"/><rect fill="#f5f6f7" x="988.2" y="440.7" width="158.6" height="24.65" shape-rendering="crispEdges"/><rect fill="#65717a" x="1146.8" y="440.7" width="12.2" height="24.65" shape-rendering="crispEdges"/><rect fill="#f5f6f7" x="1159" y="440.7" width="12.2" height="24.65" shape-rendering="crispEdges"/><rect fill="#f5f6f7" x="1171.2" y="440.7" width="48.8" height="24.65" shape-rendering="crispEdges"/><rect fill="#f5f6f7" x="0" y="465.1" width="12.2" height="24.65" shape-rendering="crispEdges"/><rect fill="#f5f6f7" x="12.2" y="465.1" width="24.4" height="24.65" shape-rendering="crispEdges"/><rect fill="#f5f6f7" x="36.6" y="465.1" width="36.6" height="24.65" shape-rendering="crispEdges"/><rect fill="#f5f6f7" x="73.2" y="465.1" width="231.8" height="24.65" shape-rendering="crispEdges"/><rect fill="#f5f6f7" x="305" y="465.1" width="73.2" height="24.65" shape-rendering="crispEdges"/><rect fill="#f5f6f7" x="378.2" y="465.1" width="134.2" height="24.65" shape-rendering="crispEdges"/><rect fill="#f5f6f7" x="512.4" y="465.1" width="475.8" height="24.65" shape-rendering="crispEdges"/><rect fill="#f5f6f7" x="988.2" y="465.1" width="158.6" height="24.65" shape-rendering="crispEdges"/><rect fill="#65717a" x="1146.8" y="465.1" width="12.2" height="24.65" shape-rendering="crispEdges"/><rect fill="#f5f6f7" x="1159" y="465.1" width="12.2" height="24.65" shape-rendering="crispEdges"/><rect fill="#f5f6f7" x="1171.2" y="465.1" width="48.8" height="24.65" shape-rendering="crispEdges"/><rect fill="#f5f6f7" x="0" y="489.5" width="12.2" height="24.65" shape-rendering="crispEdges"/><rect fill="#f5f6f7" x="12.2" y="489.5" width="1134.6" height="24.65" shape-rendering="crispEdges"/><rect fill="#65717a" x="1146.8" y="489.5" width="12.2" height="24.65" shape-rendering="crispEdges"/><rect fill="#f5f6f7" x="1159" y="489.5" width="12.2" height="24.65" shape-rendering="crispEdges"/><rect fill="#f5f6f7" x="1171.2" y="489.5" width="48.8" height="24.65" shape-rendering="crispEdges"/><rect fill="#f5f6f7" x="0" y="513.9" width="12.2" height="24.65" shape-rendering="crispEdges"/><rect fill="#f5f6f7" x="12.2" y="513.9" width="24.4" height="24.65" shape-rendering="crispEdges"/><rect fill="#f5f6f7" x="36.6" y="513.9" width="268.4" height="24.65" shape-rendering="crispEdges"/><rect fill="#f5f6f7" x="305" y="513.9" width="841.8" height="24.65" shape-rendering="crispEdges"/><rect fill="#65717a" x="1146.8" y="513.9" width="12.2" height="24.65" shape-rendering="crispEdges"/><rect fill="#f5f6f7" x="1159" y="513.9" width="12.2" height="24.65" shape-rendering="crispEdges"/><rect fill="#f5f6f7" x="1171.2" y="513.9" width="48.8" height="24.65" shape-rendering="crispEdges"/><rect fill="#f5f6f7" x="0" y="538.3" width="12.2" height="24.65" shape-rendering="crispEdges"/><rect fill="#f5f6f7" x="12.2" y="538.3" width="1134.6" height="24.65" shape-rendering="crispEdges"/><rect fill="#65717a" x="1146.8" y="538.3" width="12.2" height="24.65" shape-rendering="crispEdges"/><rect fill="#f5f6f7" x="1159" y="538.3" width="12.2" height="24.65" shape-rendering="crispEdges"/><rect fill="#f5f6f7" x="1171.2" y="538.3" width="48.8" height="24.65" shape-rendering="crispEdges"/><rect fill="#f5f6f7" x="0" y="562.7" width="12.2" height="24.65" shape-rendering="crispEdges"/><rect fill="#f5f6f7" x="12.2" y="562.7" width="24.4" height="24.65" shape-rendering="crispEdges"/><rect fill="#f5f6f7" x="36.6" y="562.7" width="122" height="24.65" shape-rendering="crispEdges"/><rect fill="#f5f6f7" x="158.6" y="562.7" width="988.2" height="24.65" shape-rendering="crispEdges"/><rect fill="#65717a" x="1146.8" y="562.7" width="12.2" height="24.65" shape-rendering="crispEdges"/><rect fill="#f5f6f7" x="1159" y="562.7" width="12.2" height="24.65" shape-rendering="crispEdges"/><rect fill="#f5f6f7" x="1171.2" y="562.7" width="48.8" height="24.65" shape-rendering="crispEdges"/><rect fill="#f5f6f7" x="0" y="587.1" width="12.2" height="24.65" shape-rendering="crispEdges"/><rect fill="#f5f6f7" x="12.2" y="587.1" width="24.4" height="24.65" shape-rendering="crispEdges"/><rect fill="#f5f6f7" x="36.6" y="587.1" width="488" height="24.65" shape-rendering="crispEdges"/><rect fill="#f5f6f7" x="524.6" y="587.1" width="463.6" height="24.65" shape-rendering="crispEdges"/><rect fill="#f5f6f7" x="988.2" y="587.1" width="158.6" height="24.65" shape-rendering="crispEdges"/><rect fill="#65717a" x="1146.8" y="587.1" width="12.2" height="24.65" shape-rendering="crispEdges"/><rect fill="#f5f6f7" x="1159" y="587.1" width="12.2" height="24.65" shape-rendering="crispEdges"/><rect fill="#f5f6f7" x="1171.2" y="587.1" width="48.8" height="24.65" shape-rendering="crispEdges"/><rect fill="#f5f6f7" x="0" y="611.5" width="24.4" height="24.65" shape-rendering="crispEdges"/><rect fill="#e9edf1" x="24.4" y="611.5" width="12.2" height="24.65" shape-rendering="crispEdges"/><rect fill="#e9edf1" x="36.6" y="611.5" width="12.2" height="24.65" shape-rendering="crispEdges"/><rect fill="#e9edf1" x="48.8" y="611.5" width="122" height="24.65" shape-rendering="crispEdges"/><rect fill="#e9edf1" x="170.8" y="611.5" width="1012.6" height="24.65" shape-rendering="crispEdges"/><rect fill="#e9edf1" x="1183.4" y="611.5" width="12.2" height="24.65" shape-rendering="crispEdges"/><rect fill="#f5f6f7" x="1195.6" y="611.5" width="24.4" height="24.65" shape-rendering="crispEdges"/><rect fill="#f5f6f7" x="0" y="635.9" width="24.4" height="24.65" shape-rendering="crispEdges"/><rect fill="#e9edf1" x="24.4" y="635.9" width="12.2" height="24.65" shape-rendering="crispEdges"/><rect fill="#e9edf1" x="36.6" y="635.9" width="12.2" height="24.65" shape-rendering="crispEdges"/><rect fill="#e9edf1" x="48.8" y="635.9" width="488" height="24.65" shape-rendering="crispEdges"/><rect fill="#e9edf1" x="536.8" y="635.9" width="634.4" height="24.65" shape-rendering="crispEdges"/><rect fill="#e9edf1" x="1171.2" y="635.9" width="12.2" height="24.65" shape-rendering="crispEdges"/><rect fill="#e9edf1" x="1183.4" y="635.9" width="12.2" height="24.65" shape-rendering="crispEdges"/><rect fill="#f5f6f7" x="1195.6" y="635.9" width="24.4" height="24.65" shape-rendering="crispEdges"/><rect fill="#f5f6f7" x="0" y="660.3" width="24.4" height="24.65" shape-rendering="crispEdges"/><rect fill="#e9edf1" x="24.4" y="660.3" width="12.2" height="24.65" shape-rendering="crispEdges"/><rect fill="#e9edf1" x="36.6" y="660.3" width="12.2" height="24.65" shape-rendering="crispEdges"/><rect fill="#e9edf1" x="48.8" y="660.3" width="12.2" height="24.65" shape-rendering="crispEdges"/><rect fill="#5b5c5e" x="61" y="660.3" width="12.2" height="24.65" shape-rendering="crispEdges"/><rect fill="#e9edf1" x="73.2" y="660.3" width="1085.8" height="24.65" shape-rendering="crispEdges"/><rect fill="#e9edf1" x="1159" y="660.3" width="12.2" height="24.65" shape-rendering="crispEdges"/><rect fill="#e9edf1" x="1171.2" y="660.3" width="12.2" height="24.65" shape-rendering="crispEdges"/><rect fill="#e9edf1" x="1183.4" y="660.3" width="12.2" height="24.65" shape-rendering="crispEdges"/><rect fill="#f5f6f7" x="1195.6" y="660.3" width="24.4" height="24.65" shape-rendering="crispEdges"/><rect fill="#f5f6f7" x="0" y="684.7" width="24.4" height="24.65" shape-rendering="crispEdges"/><rect fill="#e9edf1" x="24.4" y="684.7" width="12.2" height="24.65" shape-rendering="crispEdges"/><rect fill="#e9edf1" x="36.6" y="684.7" width="1146.8" height="24.65" shape-rendering="crispEdges"/><rect fill="#e9edf1" x="1183.4" y="684.7" width="12.2" height="24.65" shape-rendering="crispEdges"/><rect fill="#f5f6f7" x="1195.6" y="684.7" width="24.4" height="24.65" shape-rendering="crispEdges"/><rect fill="#f5f6f7" x="0" y="709.1" width="24.4" height="24.65" shape-rendering="crispEdges"/><rect fill="#f5f6f7" x="24.4" y="709.1" width="12.2" height="24.65" shape-rendering="crispEdges"/><rect fill="#f5f6f7" x="36.6" y="709.1" width="634.4" height="24.65" shape-rendering="crispEdges"/><rect fill="#f5f6f7" x="671" y="709.1" width="512.4" height="24.65" shape-rendering="crispEdges"/><rect fill="#f5f6f7" x="1183.4" y="709.1" width="12.2" height="24.65" shape-rendering="crispEdges"/><rect fill="#f5f6f7" x="1195.6" y="709.1" width="24.4" height="24.65" shape-rendering="crispEdges"/>
    <g class="terminal-413585415-matrix">
    <text class="terminal-413585415-r2" x="24.4" y="20" textLength="122.0" clip-path="url(#terminal-413585415-line-0)">奶龙&#160;Agent</text><text class="terminal-413585415-r3" x="146.4" y="20" textLength="329.4" clip-path="url(#terminal-413585415-line-0)">&#160;&#160;/&#160;&#160;nailong&#160;&#160;·&#160;&#160;preview1&#160;&#160;</text><text class="terminal-413585415-r4" x="1122.4" y="20" textLength="12.2" clip-path="url(#terminal-413585415-line-0)">●</text><text class="terminal-413585415-r5" x="1134.6" y="20" textLength="61.0" clip-path="url(#terminal-413585415-line-0)">&#160;就绪</text><text class="terminal-413585415-r1" x="1220" y="20" textLength="12.2" clip-path="url(#terminal-413585415-line-0)">
</text><text class="terminal-413585415-r7" x="36.6" y="44.4" textLength="12.2" clip-path="url(#terminal-413585415-line-1)">✓</text><text class="terminal-413585415-r3" x="48.8" y="44.4" textLength="378.2" clip-path="url(#terminal-413585415-line-1)">&#160;编辑&#160;ui/presentation.py&#160;·&#160;12ms</text><text class="terminal-413585415-r1" x="1220" y="44.4" textLength="12.2" clip-path="url(#terminal-413585415-line-1)">
</text><text class="terminal-413585415-r8" x="36.6" y="68.8" textLength="158.6" clip-path="url(#terminal-413585415-line-2)">&#160;&#160;└&#160;替换&#160;1&#160;处</text><text class="terminal-413585415-r1" x="1220" y="68.8" textLength="12.2" clip-path="url(#terminal-413585415-line-2)">
</text><text class="terminal-413585415-r8" x="36.6" y="93.2" textLength="170.8" clip-path="url(#terminal-413585415-line-3)">&#160;&#160;└&#160;变更预览：</text><text class="terminal-413585415-r3" x="1146.8" y="93.2" textLength="12.2" clip-path="url(#terminal-413585415-line-3)">▃</text><text class="terminal-413585415-r1" x="1220" y="93.2" textLength="12.2" clip-path="url(#terminal-413585415-line-3)">
</text><text class="terminal-413585415-r8" x="36.6" y="117.6" textLength="219.6" clip-path="url(#terminal-413585415-line-4)">&#160;&#160;&#160;&#160;@@&#160;对话标识&#160;@@</text><text class="terminal-413585415-r1" x="1220" y="117.6" textLength="12.2" clip-path="url(#terminal-413585415-line-4)">
</text><text class="terminal-413585415-r10" x="36.6" y="142" textLength="134.2" clip-path="url(#terminal-413585415-line-5)">&#160;&#160;&#160;&#160;-▌&#160;用户</text><text class="terminal-413585415-r1" x="1220" y="142" textLength="12.2" clip-path="url(#terminal-413585415-line-5)">
</text><text class="terminal-413585415-r7" x="36.6" y="166.4" textLength="134.2" clip-path="url(#terminal-413585415-line-6)">&#160;&#160;&#160;&#160;+❯&#160;用户</text><text class="terminal-413585415-r1" x="1220" y="166.4" textLength="12.2" clip-path="url(#terminal-413585415-line-6)">
</text><text class="terminal-413585415-r7" x="36.6" y="190.8" textLength="12.2" clip-path="url(#terminal-413585415-line-7)">✓</text><text class="terminal-413585415-r3" x="48.8" y="190.8" textLength="915.0" clip-path="url(#terminal-413585415-line-7)">&#160;运行&#160;.venv/bin/python&#160;-m&#160;unittest&#160;dis...ts&#160;-p&#160;test_execution_display.py&#160;·&#160;</text><text class="terminal-413585415-r1" x="1220" y="190.8" textLength="12.2" clip-path="url(#terminal-413585415-line-7)">
</text><text class="terminal-413585415-r3" x="36.6" y="215.2" textLength="195.2" clip-path="url(#terminal-413585415-line-8)">退出码&#160;0&#160;·&#160;800ms</text><text class="terminal-413585415-r1" x="1220" y="215.2" textLength="12.2" clip-path="url(#terminal-413585415-line-8)">
</text><text class="terminal-413585415-r8" x="36.6" y="239.6" textLength="170.8" clip-path="url(#terminal-413585415-line-9)">&#160;&#160;└&#160;输出预览：</text><text class="terminal-413585415-r1" x="1220" y="239.6" textLength="12.2" clip-path="url(#terminal-413585415-line-9)">
</text><text class="terminal-413585415-r8" x="36.6" y="264" textLength="292.8" clip-path="url(#terminal-413585415-line-10)">&#160;&#160;&#160;&#160;Ran&#160;14&#160;tests&#160;in&#160;1.6s</text><text class="terminal-413585415-r1" x="1220" y="264" textLength="12.2" clip-path="url(#terminal-413585415-line-10)">
</text><text class="terminal-413585415-r8" x="36.6" y="288.4" textLength="73.2" clip-path="url(#terminal-413585415-line-11)">&#160;&#160;&#160;&#160;OK</text><text class="terminal-413585415-r1" x="1220" y="288.4" textLength="12.2" clip-path="url(#terminal-413585415-line-11)">
</text><text class="terminal-413585415-r8" x="36.6" y="312.8" textLength="207.4" clip-path="url(#terminal-413585415-line-12)">工具&#160;3&#160;项&#160;·&#160;820ms</text><text class="terminal-413585415-r1" x="1220" y="312.8" textLength="12.2" clip-path="url(#terminal-413585415-line-12)">
</text><text class="terminal-413585415-r1" x="1220" y="337.2" textLength="12.2" clip-path="url(#terminal-413585415-line-13)">
</text><text class="terminal-413585415-r2" x="12.2" y="361.6" textLength="24.4" clip-path="url(#terminal-413585415-line-14)">●&#160;</text><text class="terminal-413585415-r2" x="36.6" y="361.6" textLength="122.0" clip-path="url(#terminal-413585415-line-14)">奶龙&#160;Agent</text><text class="terminal-413585415-r1" x="1220" y="361.6" textLength="12.2" clip-path="url(#terminal-413585415-line-14)">
</text><text class="terminal-413585415-r6" x="36.6" y="386" textLength="390.4" clip-path="url(#terminal-413585415-line-15)">已检查项目入口，并完成界面调整。</text><text class="terminal-413585415-r1" x="1220" y="386" textLength="12.2" clip-path="url(#terminal-413585415-line-15)">
</text><text class="terminal-413585415-r1" x="1220" y="410.4" textLength="12.2" clip-path="url(#terminal-413585415-line-16)">
</text><text class="terminal-413585415-r11" x="36.6" y="434.8" textLength="36.6" clip-path="url(#terminal-413585415-line-17)">&#160;•&#160;</text><text class="terminal-413585415-r6" x="73.2" y="434.8" textLength="292.8" clip-path="url(#terminal-413585415-line-17)">工具执行结果会立即显示。</text><text class="terminal-413585415-r1" x="1220" y="434.8" textLength="12.2" clip-path="url(#terminal-413585415-line-17)">
</text><text class="terminal-413585415-r11" x="36.6" y="459.2" textLength="36.6" clip-path="url(#terminal-413585415-line-18)">&#160;•&#160;</text><text class="terminal-413585415-r6" x="73.2" y="459.2" textLength="439.2" clip-path="url(#terminal-413585415-line-18)">命令输出和退出码显示在同一条记录中。</text><text class="terminal-413585415-r1" x="1220" y="459.2" textLength="12.2" clip-path="url(#terminal-413585415-line-18)">
</text><text class="terminal-413585415-r11" x="36.6" y="483.6" textLength="36.6" clip-path="url(#terminal-413585415-line-19)">&#160;•&#160;</text><text class="terminal-413585415-r6" x="73.2" y="483.6" textLength="231.8" clip-path="url(#terminal-413585415-line-19)">点击工具记录或使用&#160;</text><text class="terminal-413585415-r2" x="305" y="483.6" textLength="73.2" clip-path="url(#terminal-413585415-line-19)">/tools</text><text class="terminal-413585415-r6" x="378.2" y="483.6" textLength="134.2" clip-path="url(#terminal-413585415-line-19)">&#160;查看详情。</text><text class="terminal-413585415-r1" x="1220" y="483.6" textLength="12.2" clip-path="url(#terminal-413585415-line-19)">
</text><text class="terminal-413585415-r1" x="1220" y="508" textLength="12.2" clip-path="url(#terminal-413585415-line-20)">
</text><text class="terminal-413585415-r12" x="12.2" y="532.4" textLength="24.4" clip-path="url(#terminal-413585415-line-21)">❯&#160;</text><text class="terminal-413585415-r13" x="36.6" y="532.4" textLength="268.4" clip-path="url(#terminal-413585415-line-21)">检查浅色主题的可读性。</text><text class="terminal-413585415-r1" x="1220" y="532.4" textLength="12.2" clip-path="url(#terminal-413585415-line-21)">
</text><text class="terminal-413585415-r1" x="1220" y="556.8" textLength="12.2" clip-path="url(#terminal-413585415-line-22)">
</text><text class="terminal-413585415-r2" x="12.2" y="581.2" textLength="24.4" clip-path="url(#terminal-413585415-line-23)">●&#160;</text><text class="terminal-413585415-r2" x="36.6" y="581.2" textLength="122.0" clip-path="url(#terminal-413585415-line-23)">奶龙&#160;Agent</text><text class="terminal-413585415-r1" x="1220" y="581.2" textLength="12.2" clip-path="url(#terminal-413585415-line-23)">
</text><text class="terminal-413585415-r6" x="36.6" y="605.6" textLength="488.0" clip-path="url(#terminal-413585415-line-24)">浅色主题也保留相同的对话层级与执行状态。</text><text class="terminal-413585415-r1" x="1220" y="605.6" textLength="12.2" clip-path="url(#terminal-413585415-line-24)">
</text><text class="terminal-413585415-r14" x="24.4" y="630" textLength="12.2" clip-path="url(#terminal-413585415-line-25)">╭</text><text class="terminal-413585415-r14" x="36.6" y="630" textLength="12.2" clip-path="url(#terminal-413585415-line-25)">─</text><text class="terminal-413585415-r14" x="48.8" y="630" textLength="122.0" clip-path="url(#terminal-413585415-line-25)">&#160;&#160;❯&#160;输入&#160;&#160;</text><text class="terminal-413585415-r14" x="170.8" y="630" textLength="1012.6" clip-path="url(#terminal-413585415-line-25)">───────────────────────────────────────────────────────────────────────────────────</text><text class="terminal-413585415-r14" x="1183.4" y="630" textLength="12.2" clip-path="url(#terminal-413585415-line-25)">╮</text><text class="terminal-413585415-r1" x="1220" y="630" textLength="12.2" clip-path="url(#terminal-413585415-line-25)">
</text><text class="terminal-413585415-r14" x="24.4" y="654.4" textLength="12.2" clip-path="url(#terminal-413585415-line-26)">│</text><text class="terminal-413585415-r15" x="48.8" y="654.4" textLength="488.0" clip-path="url(#terminal-413585415-line-26)">输入消息…&#160;&#160;&#160;Enter&#160;发送&#160;·&#160;Ctrl+Enter&#160;换行</text><text class="terminal-413585415-r14" x="1183.4" y="654.4" textLength="12.2" clip-path="url(#terminal-413585415-line-26)">│</text><text class="terminal-413585415-r1" x="1220" y="654.4" textLength="12.2" clip-path="url(#terminal-413585415-line-26)">
</text><text class="terminal-413585415-r14" x="24.4" y="678.8" textLength="12.2" clip-path="url(#terminal-413585415-line-27)">│</text><text class="terminal-413585415-r14" x="1183.4" y="678.8" textLength="12.2" clip-path="url(#terminal-413585415-line-27)">│</text><text class="terminal-413585415-r1" x="1220" y="678.8" textLength="12.2" clip-path="url(#terminal-413585415-line-27)">
</text><text class="terminal-413585415-r14" x="24.4" y="703.2" textLength="12.2" clip-path="url(#terminal-413585415-line-28)">╰</text><text class="terminal-413585415-r14" x="36.6" y="703.2" textLength="1146.8" clip-path="url(#terminal-413585415-line-28)">──────────────────────────────────────────────────────────────────────────────────────────────</text><text class="terminal-413585415-r14" x="1183.4" y="703.2" textLength="12.2" clip-path="url(#terminal-413585415-line-28)">╯</text><text class="terminal-413585415-r1" x="1220" y="703.2" textLength="12.2" clip-path="url(#terminal-413585415-line-28)">
</text><text class="terminal-413585415-r3" x="36.6" y="727.6" textLength="634.4" clip-path="url(#terminal-413585415-line-29)">deepseek-chat&#160;&#160;·&#160;&#160;会话&#160;2&#160;轮&#160;&#160;·&#160;&#160;Token&#160;0&#160;&#160;·&#160;&#160;上下文&#160;—</text>
    </g>
    </g>
</svg>
